<?xml version="1.0" encoding="UTF-8" standalone="no"?>
<!DOCTYPE svg PUBLIC "-//W3C//DTD SVG 1.1//EN"
 "http://www.w3.org/Graphics/SVG/1.1/DTD/svg11.dtd">
<!-- Generated by graphviz version 2.26.3 (20100126.1600)
 -->
<!-- Title: controllers_diagram Pages: 1 -->
<svg width="789pt" height="788pt"
 viewBox="0.00 0.00 789.00 788.00" xmlns="http://www.w3.org/2000/svg" xmlns:xlink="http://www.w3.org/1999/xlink">
<g id="graph1" class="graph" transform="scale(1 1) rotate(0) translate(4 784)">
<title>controllers_diagram</title>
<polygon fill="none" stroke="none" points="-4,5 -4,-784 786,-784 786,5 -4,5"/>
<!-- _diagram_info -->
<g id="node1" class="node"><title>_diagram_info</title>
<text text-anchor="start" x="538" y="-584.3" font-family="Times Roman,serif" font-size="13.00">Controllers diagram</text>
<text text-anchor="start" x="538" y="-567.3" font-family="Times Roman,serif" font-size="13.00">Date: Jun 15 2016 &#45; 10:24</text>
<text text-anchor="start" x="538" y="-550.3" font-family="Times Roman,serif" font-size="13.00">Migration version: 20160614073326</text>
<text text-anchor="start" x="538" y="-533.3" font-family="Times Roman,serif" font-size="13.00">Generated by RailRoady 1.4.2</text>
<text text-anchor="start" x="538" y="-516.3" font-family="Times Roman,serif" font-size="13.00">http://railroady.prestonlee.com</text>
</g>
<!-- ApplicationController -->
<g id="node2" class="node"><title>ApplicationController</title>
<polyline fill="none" stroke="black" points="13,-622.5 150,-622.5 "/>
<path fill="none" stroke="black" d="M150,-622.5C156,-622.5 162,-628.5 162,-634.5"/>
<polyline fill="none" stroke="black" points="162,-634.5 162,-766.5 "/>
<path fill="none" stroke="black" d="M162,-766.5C162,-772.5 156,-778.5 150,-778.5"/>
<polyline fill="none" stroke="black" points="150,-778.5 13,-778.5 "/>
<path fill="none" stroke="black" d="M13,-778.5C7,-778.5 1,-772.5 1,-766.5"/>
<polyline fill="none" stroke="black" points="1,-766.5 1,-634.5 "/>
<path fill="none" stroke="black" d="M1,-634.5C1,-628.5 7,-622.5 13,-622.5"/>
<text text-anchor="middle" x="81.5" y="-761.9" font-family="Times Roman,serif" font-size="14.00">ApplicationController</text>
<polyline fill="none" stroke="black" points="1,-752.5 162,-752.5 "/>
<text text-anchor="start" x="9" y="-735.9" font-family="Times Roman,serif" font-size="14.00">find_chatroom</text>
<text text-anchor="start" x="9" y="-717.9" font-family="Times Roman,serif" font-size="14.00">find_member</text>
<text text-anchor="start" x="9" y="-699.9" font-family="Times Roman,serif" font-size="14.00">find_user</text>
<text text-anchor="start" x="9" y="-681.9" font-family="Times Roman,serif" font-size="14.00">get_response</text>
<polyline fill="none" stroke="black" points="1,-672.5 162,-672.5 "/>
<polyline fill="none" stroke="black" points="1,-648.5 162,-648.5 "/>
<text text-anchor="start" x="9" y="-631.9" font-family="Times Roman,serif" font-size="14.00">_layout</text>
</g>
<!-- Apis::ChatroomsController -->
<g id="node3" class="node"><title>Apis::ChatroomsController</title>
<polyline fill="none" stroke="black" points="220,-162.5 423,-162.5 "/>
<path fill="none" stroke="black" d="M423,-162.5C429,-162.5 435,-168.5 435,-174.5"/>
<polyline fill="none" stroke="black" points="435,-174.5 435,-414.5 "/>
<path fill="none" stroke="black" d="M435,-414.5C435,-420.5 429,-426.5 423,-426.5"/>
<polyline fill="none" stroke="black" points="423,-426.5 220,-426.5 "/>
<path fill="none" stroke="black" d="M220,-426.5C214,-426.5 208,-420.5 208,-414.5"/>
<polyline fill="none" stroke="black" points="208,-414.5 208,-174.5 "/>
<path fill="none" stroke="black" d="M208,-174.5C208,-168.5 214,-162.5 220,-162.5"/>
<text text-anchor="middle" x="321.5" y="-409.9" font-family="Times Roman,serif" font-size="14.00">Apis::ChatroomsController</text>
<polyline fill="none" stroke="black" points="208,-400.5 435,-400.5 "/>
<text text-anchor="start" x="216" y="-383.9" font-family="Times Roman,serif" font-size="14.00">add_chatroom</text>
<text text-anchor="start" x="216" y="-365.9" font-family="Times Roman,serif" font-size="14.00">change_chatroom_background</text>
<text text-anchor="start" x="216" y="-347.9" font-family="Times Roman,serif" font-size="14.00">chatroom_details</text>
<text text-anchor="start" x="216" y="-329.9" font-family="Times Roman,serif" font-size="14.00">create_chatroom_message</text>
<text text-anchor="start" x="216" y="-311.9" font-family="Times Roman,serif" font-size="14.00">get_chatroom</text>
<text text-anchor="start" x="216" y="-293.9" font-family="Times Roman,serif" font-size="14.00">leave_group</text>
<text text-anchor="start" x="216" y="-275.9" font-family="Times Roman,serif" font-size="14.00">mute_chat</text>
<text text-anchor="start" x="216" y="-257.9" font-family="Times Roman,serif" font-size="14.00">my_chatroom</text>
<text text-anchor="start" x="216" y="-239.9" font-family="Times Roman,serif" font-size="14.00">my_chatroom_messages</text>
<polyline fill="none" stroke="black" points="208,-230.5 435,-230.5 "/>
<polyline fill="none" stroke="black" points="208,-206.5 435,-206.5 "/>
<text text-anchor="start" x="216" y="-189.9" font-family="Times Roman,serif" font-size="14.00">_layout</text>
<text text-anchor="start" x="216" y="-171.9" font-family="Times Roman,serif" font-size="14.00">message_params</text>
</g>
<!-- Apis::UsersController -->
<g id="node4" class="node"><title>Apis::UsersController</title>
<polyline fill="none" stroke="black" points="496,-139.5 633,-139.5 "/>
<path fill="none" stroke="black" d="M633,-139.5C639,-139.5 645,-145.5 645,-151.5"/>
<polyline fill="none" stroke="black" points="645,-151.5 645,-445.5 "/>
<path fill="none" stroke="black" d="M645,-445.5C645,-451.5 639,-457.5 633,-457.5"/>
<polyline fill="none" stroke="black" points="633,-457.5 496,-457.5 "/>
<path fill="none" stroke="black" d="M496,-457.5C490,-457.5 484,-451.5 484,-445.5"/>
<polyline fill="none" stroke="black" points="484,-445.5 484,-151.5 "/>
<path fill="none" stroke="black" d="M484,-151.5C484,-145.5 490,-139.5 496,-139.5"/>
<text text-anchor="middle" x="564.5" y="-440.9" font-family="Times Roman,serif" font-size="14.00">Apis::UsersController</text>
<polyline fill="none" stroke="black" points="484,-431.5 645,-431.5 "/>
<text text-anchor="start" x="492" y="-414.9" font-family="Times Roman,serif" font-size="14.00">about</text>
<text text-anchor="start" x="492" y="-396.9" font-family="Times Roman,serif" font-size="14.00">change_user_status</text>
<text text-anchor="start" x="492" y="-378.9" font-family="Times Roman,serif" font-size="14.00">create</text>
<text text-anchor="start" x="492" y="-360.9" font-family="Times Roman,serif" font-size="14.00">faq</text>
<text text-anchor="start" x="492" y="-342.9" font-family="Times Roman,serif" font-size="14.00">get_background</text>
<text text-anchor="start" x="492" y="-324.9" font-family="Times Roman,serif" font-size="14.00">get_location</text>
<text text-anchor="start" x="492" y="-306.9" font-family="Times Roman,serif" font-size="14.00">home</text>
<text text-anchor="start" x="492" y="-288.9" font-family="Times Roman,serif" font-size="14.00">login</text>
<text text-anchor="start" x="492" y="-270.9" font-family="Times Roman,serif" font-size="14.00">show</text>
<text text-anchor="start" x="492" y="-252.9" font-family="Times Roman,serif" font-size="14.00">sign_out</text>
<text text-anchor="start" x="492" y="-234.9" font-family="Times Roman,serif" font-size="14.00">term</text>
<text text-anchor="start" x="492" y="-216.9" font-family="Times Roman,serif" font-size="14.00">update</text>
<polyline fill="none" stroke="black" points="484,-207.5 645,-207.5 "/>
<polyline fill="none" stroke="black" points="484,-183.5 645,-183.5 "/>
<text text-anchor="start" x="492" y="-166.9" font-family="Times Roman,serif" font-size="14.00">_layout</text>
<text text-anchor="start" x="492" y="-148.9" font-family="Times Roman,serif" font-size="14.00">users_params</text>
</g>
<!-- Apis::FriendsController -->
<g id="node5" class="node"><title>Apis::FriendsController</title>
<polyline fill="none" stroke="black" points="220,-461.5 435,-461.5 "/>
<path fill="none" stroke="black" d="M435,-461.5C441,-461.5 447,-467.5 447,-473.5"/>
<polyline fill="none" stroke="black" points="447,-473.5 447,-623.5 "/>
<path fill="none" stroke="black" d="M447,-623.5C447,-629.5 441,-635.5 435,-635.5"/>
<polyline fill="none" stroke="black" points="435,-635.5 220,-635.5 "/>
<path fill="none" stroke="black" d="M220,-635.5C214,-635.5 208,-629.5 208,-623.5"/>
<polyline fill="none" stroke="black" points="208,-623.5 208,-473.5 "/>
<path fill="none" stroke="black" d="M208,-473.5C208,-467.5 214,-461.5 220,-461.5"/>
<text text-anchor="middle" x="327.5" y="-618.9" font-family="Times Roman,serif" font-size="14.00">Apis::FriendsController</text>
<polyline fill="none" stroke="black" points="208,-609.5 447,-609.5 "/>
<text text-anchor="start" x="216" y="-592.9" font-family="Times Roman,serif" font-size="14.00">add_block_friend</text>
<text text-anchor="start" x="216" y="-574.9" font-family="Times Roman,serif" font-size="14.00">change_single_chat_background</text>
<text text-anchor="start" x="216" y="-556.9" font-family="Times Roman,serif" font-size="14.00">get_friend_messages</text>
<text text-anchor="start" x="216" y="-538.9" font-family="Times Roman,serif" font-size="14.00">send_message_to_friend</text>
<polyline fill="none" stroke="black" points="208,-529.5 447,-529.5 "/>
<polyline fill="none" stroke="black" points="208,-505.5 447,-505.5 "/>
<text text-anchor="start" x="216" y="-488.9" font-family="Times Roman,serif" font-size="14.00">_layout</text>
<text text-anchor="start" x="216" y="-470.9" font-family="Times Roman,serif" font-size="14.00">single_chat_message_params</text>
</g>
<!-- Apis::ContactsController -->
<g id="node6" class="node"><title>Apis::ContactsController</title>
<polyline fill="none" stroke="black" points="36,-1.5 196,-1.5 "/>
<path fill="none" stroke="black" d="M196,-1.5C202,-1.5 208,-7.5 208,-13.5"/>
<polyline fill="none" stroke="black" points="208,-13.5 208,-109.5 "/>
<path fill="none" stroke="black" d="M208,-109.5C208,-115.5 202,-121.5 196,-121.5"/>
<polyline fill="none" stroke="black" points="196,-121.5 36,-121.5 "/>
<path fill="none" stroke="black" d="M36,-121.5C30,-121.5 24,-115.5 24,-109.5"/>
<polyline fill="none" stroke="black" points="24,-109.5 24,-13.5 "/>
<path fill="none" stroke="black" d="M24,-13.5C24,-7.5 30,-1.5 36,-1.5"/>
<text text-anchor="middle" x="116" y="-104.9" font-family="Times Roman,serif" font-size="14.00">Apis::ContactsController</text>
<polyline fill="none" stroke="black" points="24,-95.5 208,-95.5 "/>
<text text-anchor="start" x="32" y="-78.9" font-family="Times Roman,serif" font-size="14.00">contact_us</text>
<polyline fill="none" stroke="black" points="24,-69.5 208,-69.5 "/>
<polyline fill="none" stroke="black" points="24,-45.5 208,-45.5 "/>
<text text-anchor="start" x="32" y="-28.9" font-family="Times Roman,serif" font-size="14.00">_layout</text>
<text text-anchor="start" x="32" y="-10.9" font-family="Times Roman,serif" font-size="14.00">contact_params</text>
</g>
</g>
</svg>
