<?xml version="1.0" encoding="UTF-8" standalone="no"?>
<!DOCTYPE svg PUBLIC "-//W3C//DTD SVG 1.1//EN"
 "http://www.w3.org/Graphics/SVG/1.1/DTD/svg11.dtd">
<!-- Generated by graphviz version 2.26.3 (20100126.1600)
 -->
<!-- Title: models_diagram Pages: 1 -->
<svg width="1271pt" height="324pt"
 viewBox="0.00 0.00 1271.35 324.00" xmlns="http://www.w3.org/2000/svg" xmlns:xlink="http://www.w3.org/1999/xlink">
<g id="graph1" class="graph" transform="scale(1 1) rotate(0) translate(4 320)">
<title>models_diagram</title>
<polygon fill="none" stroke="none" points="-4,5 -4,-320 1268.35,-320 1268.35,5 -4,5"/>
<!-- _diagram_info -->
<g id="node1" class="node"><title>_diagram_info</title>
<text text-anchor="start" x="369.348" y="-299.8" font-family="Times Roman,serif" font-size="13.00">Models diagram</text>
<text text-anchor="start" x="369.348" y="-282.8" font-family="Times Roman,serif" font-size="13.00">Date: Jun 15 2016 &#45; 10:24</text>
<text text-anchor="start" x="369.348" y="-265.8" font-family="Times Roman,serif" font-size="13.00">Migration version: 20160614073326</text>
<text text-anchor="start" x="369.348" y="-248.8" font-family="Times Roman,serif" font-size="13.00">Generated by RailRoady 1.4.2</text>
<text text-anchor="start" x="369.348" y="-231.8" font-family="Times Roman,serif" font-size="13.00">http://railroady.prestonlee.com</text>
</g>
<!-- Gadget -->
<g id="node2" class="node"><title>Gadget</title>
<ellipse fill="none" stroke="black" cx="686.348" cy="-93" rx="46.8775" ry="18.3848"/>
<text text-anchor="middle" x="686.348" y="-89.4" font-family="Times Roman,serif" font-size="14.00">Gadget</text>
</g>
<!-- Message -->
<g id="node3" class="node"><title>Message</title>
<ellipse fill="none" stroke="black" cx="340.348" cy="-19" rx="53.033" ry="18.3848"/>
<text text-anchor="middle" x="340.348" y="-15.4" font-family="Times Roman,serif" font-size="14.00">Message</text>
</g>
<!-- UsersChatroom -->
<g id="node4" class="node"><title>UsersChatroom</title>
<ellipse fill="none" stroke="black" cx="805.348" cy="-19" rx="86.9741" ry="18.3848"/>
<text text-anchor="middle" x="805.348" y="-15.4" font-family="Times Roman,serif" font-size="14.00">UsersChatroom</text>
</g>
<!-- Subscription -->
<g id="node5" class="node"><title>Subscription</title>
<ellipse fill="none" stroke="black" cx="88.3483" cy="-93" rx="70.9184" ry="18.3848"/>
<text text-anchor="middle" x="88.3483" y="-89.4" font-family="Times Roman,serif" font-size="14.00">Subscription</text>
</g>
<!-- ContactU -->
<g id="node6" class="node"><title>ContactU</title>
<ellipse fill="none" stroke="black" cx="234.348" cy="-93" rx="56.7776" ry="18.3848"/>
<text text-anchor="middle" x="234.348" y="-89.4" font-family="Times Roman,serif" font-size="14.00">ContactU</text>
</g>
<!-- Background -->
<g id="node7" class="node"><title>Background</title>
<ellipse fill="none" stroke="black" cx="822.348" cy="-269" rx="68.7979" ry="18.3848"/>
<text text-anchor="middle" x="822.348" y="-265.4" font-family="Times Roman,serif" font-size="14.00">Background</text>
</g>
<!-- StaticPage -->
<g id="node8" class="node"><title>StaticPage</title>
<ellipse fill="none" stroke="black" cx="972.348" cy="-269" rx="62.9325" ry="18.3848"/>
<text text-anchor="middle" x="972.348" y="-265.4" font-family="Times Roman,serif" font-size="14.00">StaticPage</text>
</g>
<!-- Paging -->
<g id="node9" class="node"><title>Paging</title>
<polygon fill="none" stroke="black" points="1115.35,-287 1053.35,-287 1053.35,-251 1115.35,-251 1115.35,-287"/>
<text text-anchor="middle" x="1084.35" y="-265.4" font-family="Times Roman,serif" font-size="14.00">Paging</text>
</g>
<!-- Friend -->
<g id="node10" class="node"><title>Friend</title>
<ellipse fill="none" stroke="black" cx="350.348" cy="-93" rx="41.2167" ry="18.3848"/>
<text text-anchor="middle" x="350.348" y="-89.4" font-family="Times Roman,serif" font-size="14.00">Friend</text>
</g>
<!-- AdminUser -->
<g id="node11" class="node"><title>AdminUser</title>
<ellipse fill="none" stroke="black" cx="1198.35" cy="-269" rx="65.0538" ry="18.3848"/>
<text text-anchor="middle" x="1198.35" y="-265.4" font-family="Times Roman,serif" font-size="14.00">AdminUser</text>
</g>
<!-- Location -->
<g id="node12" class="node"><title>Location</title>
<ellipse fill="none" stroke="black" cx="682.348" cy="-269" rx="53.033" ry="18.3848"/>
<text text-anchor="middle" x="682.348" y="-265.4" font-family="Times Roman,serif" font-size="14.00">Location</text>
</g>
<!-- User -->
<g id="node14" class="node"><title>User</title>
<ellipse fill="none" stroke="black" cx="515.348" cy="-167" rx="33.9411" ry="18.3848"/>
<text text-anchor="middle" x="515.348" y="-163.4" font-family="Times Roman,serif" font-size="14.00">User</text>
</g>
<!-- Location&#45;&gt;User -->
<g id="edge2" class="edge"><title>Location&#45;&gt;User</title>
<path fill="none" stroke="#f8d37c" d="M653.313,-245.413C643.147,-237.584 631.485,-229.069 620.348,-222 597.899,-207.75 571.362,-193.874 550.584,-183.624"/>
<polygon fill="#f8d37c" stroke="#f8d37c" points="653.58,-245.622 658.685,-255.327 657.518,-248.702 661.457,-251.782 661.457,-251.782 661.457,-251.782 657.518,-248.702 664.229,-248.237 653.58,-245.622 653.58,-245.622"/>
<polygon fill="#f8d37c" stroke="#f8d37c" points="550.464,-183.566 543.45,-175.137 545.971,-181.374 541.477,-179.181 541.477,-179.181 541.477,-179.181 545.971,-181.374 539.504,-183.226 550.464,-183.566 550.464,-183.566"/>
</g>
<!-- Chatroom -->
<g id="node15" class="node"><title>Chatroom</title>
<ellipse fill="none" stroke="black" cx="849.348" cy="-93" rx="60.1041" ry="18.3848"/>
<text text-anchor="middle" x="849.348" y="-89.4" font-family="Times Roman,serif" font-size="14.00">Chatroom</text>
</g>
<!-- Location&#45;&gt;Chatroom -->
<g id="edge4" class="edge"><title>Location&#45;&gt;Chatroom</title>
<path fill="none" stroke="#a97137" d="M704.852,-245.284C736.215,-212.231 792.84,-152.554 825.107,-118.548"/>
<ellipse fill="none" stroke="#a97137" cx="702.034" cy="-248.254" rx="4.00002" ry="4.00002"/>
<polygon fill="#a97137" stroke="#a97137" points="825.488,-118.146 835.636,-113.989 828.93,-114.519 832.372,-110.892 832.372,-110.892 832.372,-110.892 828.93,-114.519 829.107,-107.794 825.488,-118.146 825.488,-118.146"/>
</g>
<!-- SingleChatMessage -->
<g id="node13" class="node"><title>SingleChatMessage</title>
<ellipse fill="none" stroke="black" cx="515.348" cy="-93" rx="106.066" ry="18.3848"/>
<text text-anchor="middle" x="515.348" y="-89.4" font-family="Times Roman,serif" font-size="14.00">SingleChatMessage</text>
</g>
<!-- User&#45;&gt;Gadget -->
<g id="edge10" class="edge"><title>User&#45;&gt;Gadget</title>
<path fill="none" stroke="#4afe45" d="M549.535,-152.206C577.05,-140.299 615.817,-123.522 645.062,-110.866"/>
<ellipse fill="none" stroke="#4afe45" cx="545.738" cy="-153.849" rx="4.00002" ry="4.00002"/>
<polygon fill="#4afe45" stroke="#4afe45" points="645.408,-110.717 656.373,-110.875 649.997,-108.731 654.585,-106.745 654.585,-106.745 654.585,-106.745 649.997,-108.731 652.798,-102.616 645.408,-110.717 645.408,-110.717"/>
</g>
<!-- User&#45;&gt;Message -->
<g id="edge18" class="edge"><title>User&#45;&gt;Message</title>
<path fill="none" stroke="#2088e6" d="M473.047,-165.585C356.828,-161.264 39.207,-146.387 8.34835,-112 -2.93156,-99.4303 -2.5745,-86.8812 8.34835,-74 25.6306,-53.6192 187.77,-34.279 278.897,-24.9009"/>
<ellipse fill="none" stroke="#2088e6" cx="477.063" cy="-165.731" rx="4" ry="4"/>
<polygon fill="#2088e6" stroke="#2088e6" points="279.156,-24.8747 289.56,-28.3384 284.13,-24.3681 289.104,-23.8615 289.104,-23.8615 289.104,-23.8615 284.13,-24.3681 288.648,-19.3847 279.156,-24.8747 279.156,-24.8747"/>
</g>
<!-- User&#45;&gt;UsersChatroom -->
<g id="edge14" class="edge"><title>User&#45;&gt;UsersChatroom</title>
<path fill="none" stroke="#cb11ac" d="M556.332,-160.71C613.221,-151.374 712.499,-132.71 742.348,-112 765.692,-95.8044 782.87,-67.9229 793.339,-46.9014"/>
<ellipse fill="none" stroke="#cb11ac" cx="552.208" cy="-161.379" rx="4.00001" ry="4.00001"/>
<polygon fill="#cb11ac" stroke="#cb11ac" points="793.377,-46.8213 801.739,-39.7264 795.527,-42.3067 797.676,-37.7922 797.676,-37.7922 797.676,-37.7922 795.527,-42.3067 793.613,-35.8579 793.377,-46.8213 793.377,-46.8213"/>
</g>
<!-- User&#45;&gt;Subscription -->
<g id="edge6" class="edge"><title>User&#45;&gt;Subscription</title>
<path fill="none" stroke="#e88961" d="M474.194,-161.509C409.035,-152.584 278.236,-133.725 168.348,-112 161.705,-110.687 154.777,-109.208 147.898,-107.669"/>
<ellipse fill="none" stroke="#e88961" cx="478.224" cy="-162.059" rx="4.00001" ry="4.00001"/>
<ellipse fill="#e88961" stroke="#e88961" cx="143.765" cy="-106.73" rx="4.00001" ry="4.00001"/>
</g>
<!-- User&#45;&gt;ContactU -->
<g id="edge8" class="edge"><title>User&#45;&gt;ContactU</title>
<path fill="none" stroke="#fc953e" d="M476.317,-157.387C433.168,-146.674 361.648,-128.66 300.348,-112 295.958,-110.807 291.41,-109.547 286.849,-108.267"/>
<ellipse fill="none" stroke="#fc953e" cx="480.414" cy="-158.403" rx="4.00001" ry="4.00001"/>
<polygon fill="#fc953e" stroke="#fc953e" points="286.522,-108.175 278.126,-101.122 281.711,-106.813 276.9,-105.452 276.9,-105.452 276.9,-105.452 281.711,-106.813 275.675,-109.782 286.522,-108.175 286.522,-108.175"/>
</g>
<!-- User&#45;&gt;Friend -->
<g id="edge12" class="edge"><title>User&#45;&gt;Friend</title>
<path fill="none" stroke="#023db0" d="M481.513,-151.825C454.663,-139.784 417.111,-122.942 389.065,-110.364"/>
<ellipse fill="none" stroke="#023db0" cx="485.188" cy="-153.474" rx="4.00002" ry="4.00002"/>
<polygon fill="#023db0" stroke="#023db0" points="388.698,-110.199 381.415,-102.001 384.136,-108.153 379.574,-106.107 379.574,-106.107 379.574,-106.107 384.136,-108.153 377.732,-110.213 388.698,-110.199 388.698,-110.199"/>
</g>
<!-- User&#45;&gt;SingleChatMessage -->
<g id="edge20" class="edge"><title>User&#45;&gt;SingleChatMessage</title>
<path fill="none" stroke="#267b37" d="M515.348,-140.309C515.348,-134.377 515.348,-128.061 515.348,-122.04"/>
<ellipse fill="none" stroke="#267b37" cx="515.348" cy="-144.327" rx="4" ry="4"/>
<polygon fill="#267b37" stroke="#267b37" points="515.348,-121.667 519.848,-111.667 515.348,-116.667 515.348,-111.667 515.348,-111.667 515.348,-111.667 515.348,-116.667 510.848,-111.667 515.348,-121.667 515.348,-121.667"/>
</g>
<!-- User&#45;&gt;Chatroom -->
<g id="edge16" class="edge"><title>User&#45;&gt;Chatroom</title>
<path fill="none" stroke="#49f229" d="M557.559,-158.65C609.098,-148.321 698.857,-129.902 775.348,-112 781.366,-110.592 787.644,-109.067 793.889,-107.514"/>
<polygon fill="#49f229" stroke="#49f229" points="557.274,-158.707 546.586,-156.254 552.371,-159.687 547.468,-160.667 547.468,-160.667 547.468,-160.667 552.371,-159.687 548.35,-165.079 557.274,-158.707 557.274,-158.707"/>
<polygon fill="#49f229" stroke="#49f229" points="793.935,-107.503 804.73,-109.428 798.784,-106.283 803.633,-105.064 803.633,-105.064 803.633,-105.064 798.784,-106.283 802.536,-100.7 793.935,-107.503 793.935,-107.503"/>
</g>
<!-- Chatroom&#45;&gt;Message -->
<g id="edge22" class="edge"><title>Chatroom&#45;&gt;Message</title>
<path fill="none" stroke="#daa5a5" d="M789.769,-81.9873C774.344,-79.2552 757.744,-76.4191 742.348,-74 621.473,-55.007 479.554,-36.4668 400.798,-26.5092"/>
<ellipse fill="none" stroke="#daa5a5" cx="793.777" cy="-82.7018" rx="4.00001" ry="4.00001"/>
<polygon fill="#daa5a5" stroke="#daa5a5" points="400.501,-26.4718 391.143,-20.7559 395.54,-25.8462 390.579,-25.2206 390.579,-25.2206 390.579,-25.2206 395.54,-25.8462 390.016,-29.6852 400.501,-26.4718 400.501,-26.4718"/>
</g>
<!-- Chatroom&#45;&gt;UsersChatroom -->
<g id="edge24" class="edge"><title>Chatroom&#45;&gt;UsersChatroom</title>
<path fill="none" stroke="#26840c" d="M834.348,-67.7724C830.304,-60.971 825.908,-53.5771 821.789,-46.651"/>
<ellipse fill="none" stroke="#26840c" cx="836.428" cy="-71.2697" rx="4.00002" ry="4.00002"/>
<polygon fill="#26840c" stroke="#26840c" points="821.516,-46.1911 820.273,-35.2958 818.961,-41.8934 816.405,-37.5957 816.405,-37.5957 816.405,-37.5957 818.961,-41.8934 812.537,-39.8956 821.516,-46.1911 821.516,-46.1911"/>
</g>
</g>
</svg>
