<?xml version="1.0" encoding="UTF-8" standalone="no"?>
<!DOCTYPE svg PUBLIC "-//W3C//DTD SVG 1.1//EN"
 "http://www.w3.org/Graphics/SVG/1.1/DTD/svg11.dtd">
<!-- Generated by graphviz version 2.26.3 (20100126.1600)
 -->
<!-- Title: models_diagram Pages: 1 -->
<svg width="2843pt" height="1088pt"
 viewBox="0.00 0.00 2842.60 1088.00" xmlns="http://www.w3.org/2000/svg" xmlns:xlink="http://www.w3.org/1999/xlink">
<g id="graph1" class="graph" transform="scale(1 1) rotate(0) translate(4 1084)">
<title>models_diagram</title>
<polygon fill="none" stroke="none" points="-4,5 -4,-1084 2839.6,-1084 2839.6,5 -4,5"/>
<!-- _diagram_info -->
<g id="node1" class="node"><title>_diagram_info</title>
<text text-anchor="start" x="1118.6" y="-966.8" font-family="Times Roman,serif" font-size="13.00">Models diagram</text>
<text text-anchor="start" x="1118.6" y="-949.8" font-family="Times Roman,serif" font-size="13.00">Date: Jun 15 2016 &#45; 10:24</text>
<text text-anchor="start" x="1118.6" y="-932.8" font-family="Times Roman,serif" font-size="13.00">Migration version: 20160614073326</text>
<text text-anchor="start" x="1118.6" y="-915.8" font-family="Times Roman,serif" font-size="13.00">Generated by RailRoady 1.4.2</text>
<text text-anchor="start" x="1118.6" y="-898.8" font-family="Times Roman,serif" font-size="13.00">http://railroady.prestonlee.com</text>
</g>
<!-- Gadget -->
<g id="node2" class="node"><title>Gadget</title>
<polyline fill="none" stroke="black" points="1371.1,-280 1656.1,-280 "/>
<path fill="none" stroke="black" d="M1656.1,-280C1662.1,-280 1668.1,-286 1668.1,-292"/>
<polyline fill="none" stroke="black" points="1668.1,-292 1668.1,-392 "/>
<path fill="none" stroke="black" d="M1668.1,-392C1668.1,-398 1662.1,-404 1656.1,-404"/>
<polyline fill="none" stroke="black" points="1656.1,-404 1371.1,-404 "/>
<path fill="none" stroke="black" d="M1371.1,-404C1365.1,-404 1359.1,-398 1359.1,-392"/>
<polyline fill="none" stroke="black" points="1359.1,-392 1359.1,-292 "/>
<path fill="none" stroke="black" d="M1359.1,-292C1359.1,-286 1365.1,-280 1371.1,-280"/>
<text text-anchor="middle" x="1513.6" y="-387.4" font-family="Times Roman,serif" font-size="14.00">Gadget</text>
<polyline fill="none" stroke="black" points="1359.1,-378 1668.1,-378 "/>
<text text-anchor="start" x="1367.1" y="-361.4" font-family="Times Roman,serif" font-size="14.00">id :integer</text>
<text text-anchor="start" x="1367.1" y="-343.4" font-family="Times Roman,serif" font-size="14.00">gadget_id :character varying</text>
<text text-anchor="start" x="1367.1" y="-325.4" font-family="Times Roman,serif" font-size="14.00">user_id :integer</text>
<text text-anchor="start" x="1367.1" y="-307.4" font-family="Times Roman,serif" font-size="14.00">created_at :timestamp without time zone</text>
<text text-anchor="start" x="1367.1" y="-289.4" font-family="Times Roman,serif" font-size="14.00">updated_at :timestamp without time zone</text>
</g>
<!-- Message -->
<g id="node3" class="node"><title>Message</title>
<polyline fill="none" stroke="black" points="647.098,-1 932.098,-1 "/>
<path fill="none" stroke="black" d="M932.098,-1C938.098,-1 944.098,-7 944.098,-13"/>
<polyline fill="none" stroke="black" points="944.098,-13 944.098,-185 "/>
<path fill="none" stroke="black" d="M944.098,-185C944.098,-191 938.098,-197 932.098,-197"/>
<polyline fill="none" stroke="black" points="932.098,-197 647.098,-197 "/>
<path fill="none" stroke="black" d="M647.098,-197C641.098,-197 635.098,-191 635.098,-185"/>
<polyline fill="none" stroke="black" points="635.098,-185 635.098,-13 "/>
<path fill="none" stroke="black" d="M635.098,-13C635.098,-7 641.098,-1 647.098,-1"/>
<text text-anchor="middle" x="789.598" y="-180.4" font-family="Times Roman,serif" font-size="14.00">Message</text>
<polyline fill="none" stroke="black" points="635.098,-171 944.098,-171 "/>
<text text-anchor="start" x="643.098" y="-154.4" font-family="Times Roman,serif" font-size="14.00">id :integer</text>
<text text-anchor="start" x="643.098" y="-136.4" font-family="Times Roman,serif" font-size="14.00">user_id :integer</text>
<text text-anchor="start" x="643.098" y="-118.4" font-family="Times Roman,serif" font-size="14.00">chatroom_id :integer</text>
<text text-anchor="start" x="643.098" y="-100.4" font-family="Times Roman,serif" font-size="14.00">content :text</text>
<text text-anchor="start" x="643.098" y="-82.4" font-family="Times Roman,serif" font-size="14.00">media :character varying</text>
<text text-anchor="start" x="643.098" y="-64.4" font-family="Times Roman,serif" font-size="14.00">is_read :text</text>
<text text-anchor="start" x="643.098" y="-46.4" font-family="Times Roman,serif" font-size="14.00">is_delete :text</text>
<text text-anchor="start" x="643.098" y="-28.4" font-family="Times Roman,serif" font-size="14.00">created_at :timestamp without time zone</text>
<text text-anchor="start" x="643.098" y="-10.4" font-family="Times Roman,serif" font-size="14.00">updated_at :timestamp without time zone</text>
</g>
<!-- UsersChatroom -->
<g id="node4" class="node"><title>UsersChatroom</title>
<polyline fill="none" stroke="black" points="1644.1,-19 1929.1,-19 "/>
<path fill="none" stroke="black" d="M1929.1,-19C1935.1,-19 1941.1,-25 1941.1,-31"/>
<polyline fill="none" stroke="black" points="1941.1,-31 1941.1,-167 "/>
<path fill="none" stroke="black" d="M1941.1,-167C1941.1,-173 1935.1,-179 1929.1,-179"/>
<polyline fill="none" stroke="black" points="1929.1,-179 1644.1,-179 "/>
<path fill="none" stroke="black" d="M1644.1,-179C1638.1,-179 1632.1,-173 1632.1,-167"/>
<polyline fill="none" stroke="black" points="1632.1,-167 1632.1,-31 "/>
<path fill="none" stroke="black" d="M1632.1,-31C1632.1,-25 1638.1,-19 1644.1,-19"/>
<text text-anchor="middle" x="1786.6" y="-162.4" font-family="Times Roman,serif" font-size="14.00">UsersChatroom</text>
<polyline fill="none" stroke="black" points="1632.1,-153 1941.1,-153 "/>
<text text-anchor="start" x="1640.1" y="-136.4" font-family="Times Roman,serif" font-size="14.00">id :integer</text>
<text text-anchor="start" x="1640.1" y="-118.4" font-family="Times Roman,serif" font-size="14.00">user_id :integer</text>
<text text-anchor="start" x="1640.1" y="-100.4" font-family="Times Roman,serif" font-size="14.00">chatroom_id :integer</text>
<text text-anchor="start" x="1640.1" y="-82.4" font-family="Times Roman,serif" font-size="14.00">background_id :integer</text>
<text text-anchor="start" x="1640.1" y="-64.4" font-family="Times Roman,serif" font-size="14.00">is_notified :boolean</text>
<text text-anchor="start" x="1640.1" y="-46.4" font-family="Times Roman,serif" font-size="14.00">created_at :timestamp without time zone</text>
<text text-anchor="start" x="1640.1" y="-28.4" font-family="Times Roman,serif" font-size="14.00">updated_at :timestamp without time zone</text>
</g>
<!-- Subscription -->
<g id="node5" class="node"><title>Subscription</title>
<polyline fill="none" stroke="black" points="67.0978,-271 352.098,-271 "/>
<path fill="none" stroke="black" d="M352.098,-271C358.098,-271 364.098,-277 364.098,-283"/>
<polyline fill="none" stroke="black" points="364.098,-283 364.098,-401 "/>
<path fill="none" stroke="black" d="M364.098,-401C364.098,-407 358.098,-413 352.098,-413"/>
<polyline fill="none" stroke="black" points="352.098,-413 67.0978,-413 "/>
<path fill="none" stroke="black" d="M67.0978,-413C61.0978,-413 55.0978,-407 55.0978,-401"/>
<polyline fill="none" stroke="black" points="55.0978,-401 55.0978,-283 "/>
<path fill="none" stroke="black" d="M55.0978,-283C55.0978,-277 61.0978,-271 67.0978,-271"/>
<text text-anchor="middle" x="209.598" y="-396.4" font-family="Times Roman,serif" font-size="14.00">Subscription</text>
<polyline fill="none" stroke="black" points="55.0978,-387 364.098,-387 "/>
<text text-anchor="start" x="63.0978" y="-370.4" font-family="Times Roman,serif" font-size="14.00">id :integer</text>
<text text-anchor="start" x="63.0978" y="-352.4" font-family="Times Roman,serif" font-size="14.00">plan :character varying</text>
<text text-anchor="start" x="63.0978" y="-334.4" font-family="Times Roman,serif" font-size="14.00">user_id :integer</text>
<text text-anchor="start" x="63.0978" y="-316.4" font-family="Times Roman,serif" font-size="14.00">is_paid :boolean</text>
<text text-anchor="start" x="63.0978" y="-298.4" font-family="Times Roman,serif" font-size="14.00">created_at :timestamp without time zone</text>
<text text-anchor="start" x="63.0978" y="-280.4" font-family="Times Roman,serif" font-size="14.00">updated_at :timestamp without time zone</text>
</g>
<!-- ContactU -->
<g id="node6" class="node"><title>ContactU</title>
<polyline fill="none" stroke="black" points="393.098,-271 678.098,-271 "/>
<path fill="none" stroke="black" d="M678.098,-271C684.098,-271 690.098,-277 690.098,-283"/>
<polyline fill="none" stroke="black" points="690.098,-283 690.098,-401 "/>
<path fill="none" stroke="black" d="M690.098,-401C690.098,-407 684.098,-413 678.098,-413"/>
<polyline fill="none" stroke="black" points="678.098,-413 393.098,-413 "/>
<path fill="none" stroke="black" d="M393.098,-413C387.098,-413 381.098,-407 381.098,-401"/>
<polyline fill="none" stroke="black" points="381.098,-401 381.098,-283 "/>
<path fill="none" stroke="black" d="M381.098,-283C381.098,-277 387.098,-271 393.098,-271"/>
<text text-anchor="middle" x="535.598" y="-396.4" font-family="Times Roman,serif" font-size="14.00">ContactU</text>
<polyline fill="none" stroke="black" points="381.098,-387 690.098,-387 "/>
<text text-anchor="start" x="389.098" y="-370.4" font-family="Times Roman,serif" font-size="14.00">id :integer</text>
<text text-anchor="start" x="389.098" y="-352.4" font-family="Times Roman,serif" font-size="14.00">user_id :integer</text>
<text text-anchor="start" x="389.098" y="-334.4" font-family="Times Roman,serif" font-size="14.00">subject :character varying</text>
<text text-anchor="start" x="389.098" y="-316.4" font-family="Times Roman,serif" font-size="14.00">description :text</text>
<text text-anchor="start" x="389.098" y="-298.4" font-family="Times Roman,serif" font-size="14.00">created_at :timestamp without time zone</text>
<text text-anchor="start" x="389.098" y="-280.4" font-family="Times Roman,serif" font-size="14.00">updated_at :timestamp without time zone</text>
</g>
<!-- Background -->
<g id="node7" class="node"><title>Background</title>
<polyline fill="none" stroke="black" points="1716.1,-874 2001.1,-874 "/>
<path fill="none" stroke="black" d="M2001.1,-874C2007.1,-874 2013.1,-880 2013.1,-886"/>
<polyline fill="none" stroke="black" points="2013.1,-886 2013.1,-986 "/>
<path fill="none" stroke="black" d="M2013.1,-986C2013.1,-992 2007.1,-998 2001.1,-998"/>
<polyline fill="none" stroke="black" points="2001.1,-998 1716.1,-998 "/>
<path fill="none" stroke="black" d="M1716.1,-998C1710.1,-998 1704.1,-992 1704.1,-986"/>
<polyline fill="none" stroke="black" points="1704.1,-986 1704.1,-886 "/>
<path fill="none" stroke="black" d="M1704.1,-886C1704.1,-880 1710.1,-874 1716.1,-874"/>
<text text-anchor="middle" x="1858.6" y="-981.4" font-family="Times Roman,serif" font-size="14.00">Background</text>
<polyline fill="none" stroke="black" points="1704.1,-972 2013.1,-972 "/>
<text text-anchor="start" x="1712.1" y="-955.4" font-family="Times Roman,serif" font-size="14.00">id :integer</text>
<text text-anchor="start" x="1712.1" y="-937.4" font-family="Times Roman,serif" font-size="14.00">name :character varying</text>
<text text-anchor="start" x="1712.1" y="-919.4" font-family="Times Roman,serif" font-size="14.00">image :character varying</text>
<text text-anchor="start" x="1712.1" y="-901.4" font-family="Times Roman,serif" font-size="14.00">created_at :timestamp without time zone</text>
<text text-anchor="start" x="1712.1" y="-883.4" font-family="Times Roman,serif" font-size="14.00">updated_at :timestamp without time zone</text>
</g>
<!-- StaticPage -->
<g id="node8" class="node"><title>StaticPage</title>
<polyline fill="none" stroke="black" points="2042.1,-874 2327.1,-874 "/>
<path fill="none" stroke="black" d="M2327.1,-874C2333.1,-874 2339.1,-880 2339.1,-886"/>
<polyline fill="none" stroke="black" points="2339.1,-886 2339.1,-986 "/>
<path fill="none" stroke="black" d="M2339.1,-986C2339.1,-992 2333.1,-998 2327.1,-998"/>
<polyline fill="none" stroke="black" points="2327.1,-998 2042.1,-998 "/>
<path fill="none" stroke="black" d="M2042.1,-998C2036.1,-998 2030.1,-992 2030.1,-986"/>
<polyline fill="none" stroke="black" points="2030.1,-986 2030.1,-886 "/>
<path fill="none" stroke="black" d="M2030.1,-886C2030.1,-880 2036.1,-874 2042.1,-874"/>
<text text-anchor="middle" x="2184.6" y="-981.4" font-family="Times Roman,serif" font-size="14.00">StaticPage</text>
<polyline fill="none" stroke="black" points="2030.1,-972 2339.1,-972 "/>
<text text-anchor="start" x="2038.1" y="-955.4" font-family="Times Roman,serif" font-size="14.00">id :integer</text>
<text text-anchor="start" x="2038.1" y="-937.4" font-family="Times Roman,serif" font-size="14.00">title :character varying</text>
<text text-anchor="start" x="2038.1" y="-919.4" font-family="Times Roman,serif" font-size="14.00">content :text</text>
<text text-anchor="start" x="2038.1" y="-901.4" font-family="Times Roman,serif" font-size="14.00">created_at :timestamp without time zone</text>
<text text-anchor="start" x="2038.1" y="-883.4" font-family="Times Roman,serif" font-size="14.00">updated_at :timestamp without time zone</text>
</g>
<!-- Paging -->
<g id="node9" class="node"><title>Paging</title>
<polygon fill="none" stroke="black" points="2356.6,-910 2356.6,-962 2418.6,-962 2418.6,-910 2356.6,-910"/>
<text text-anchor="middle" x="2387.6" y="-945.4" font-family="Times Roman,serif" font-size="14.00">Paging</text>
<polyline fill="none" stroke="black" points="2356.6,-936 2418.6,-936 "/>
<text text-anchor="middle" x="2387.6" y="-919.4" font-family="Times Roman,serif" font-size="14.00"> </text>
</g>
<!-- Friend -->
<g id="node10" class="node"><title>Friend</title>
<polyline fill="none" stroke="black" points="719.098,-235 1004.1,-235 "/>
<path fill="none" stroke="black" d="M1004.1,-235C1010.1,-235 1016.1,-241 1016.1,-247"/>
<polyline fill="none" stroke="black" points="1016.1,-247 1016.1,-437 "/>
<path fill="none" stroke="black" d="M1016.1,-437C1016.1,-443 1010.1,-449 1004.1,-449"/>
<polyline fill="none" stroke="black" points="1004.1,-449 719.098,-449 "/>
<path fill="none" stroke="black" d="M719.098,-449C713.098,-449 707.098,-443 707.098,-437"/>
<polyline fill="none" stroke="black" points="707.098,-437 707.098,-247 "/>
<path fill="none" stroke="black" d="M707.098,-247C707.098,-241 713.098,-235 719.098,-235"/>
<text text-anchor="middle" x="861.598" y="-432.4" font-family="Times Roman,serif" font-size="14.00">Friend</text>
<polyline fill="none" stroke="black" points="707.098,-423 1016.1,-423 "/>
<text text-anchor="start" x="715.098" y="-406.4" font-family="Times Roman,serif" font-size="14.00">id :integer</text>
<text text-anchor="start" x="715.098" y="-388.4" font-family="Times Roman,serif" font-size="14.00">user_id :integer</text>
<text text-anchor="start" x="715.098" y="-370.4" font-family="Times Roman,serif" font-size="14.00">background_id :integer</text>
<text text-anchor="start" x="715.098" y="-352.4" font-family="Times Roman,serif" font-size="14.00">is_notified :boolean</text>
<text text-anchor="start" x="715.098" y="-334.4" font-family="Times Roman,serif" font-size="14.00">member_id :integer</text>
<text text-anchor="start" x="715.098" y="-316.4" font-family="Times Roman,serif" font-size="14.00">is_paid :boolean</text>
<text text-anchor="start" x="715.098" y="-298.4" font-family="Times Roman,serif" font-size="14.00">is_block :boolean</text>
<text text-anchor="start" x="715.098" y="-280.4" font-family="Times Roman,serif" font-size="14.00">is_added :boolean</text>
<text text-anchor="start" x="715.098" y="-262.4" font-family="Times Roman,serif" font-size="14.00">created_at :timestamp without time zone</text>
<text text-anchor="start" x="715.098" y="-244.4" font-family="Times Roman,serif" font-size="14.00">updated_at :timestamp without time zone</text>
</g>
<!-- AdminUser -->
<g id="node11" class="node"><title>AdminUser</title>
<polyline fill="none" stroke="black" points="2448.6,-793 2822.6,-793 "/>
<path fill="none" stroke="black" d="M2822.6,-793C2828.6,-793 2834.6,-799 2834.6,-805"/>
<polyline fill="none" stroke="black" points="2834.6,-805 2834.6,-1067 "/>
<path fill="none" stroke="black" d="M2834.6,-1067C2834.6,-1073 2828.6,-1079 2822.6,-1079"/>
<polyline fill="none" stroke="black" points="2822.6,-1079 2448.6,-1079 "/>
<path fill="none" stroke="black" d="M2448.6,-1079C2442.6,-1079 2436.6,-1073 2436.6,-1067"/>
<polyline fill="none" stroke="black" points="2436.6,-1067 2436.6,-805 "/>
<path fill="none" stroke="black" d="M2436.6,-805C2436.6,-799 2442.6,-793 2448.6,-793"/>
<text text-anchor="middle" x="2635.6" y="-1062.4" font-family="Times Roman,serif" font-size="14.00">AdminUser</text>
<polyline fill="none" stroke="black" points="2436.6,-1053 2834.6,-1053 "/>
<text text-anchor="start" x="2444.6" y="-1036.4" font-family="Times Roman,serif" font-size="14.00">id :integer</text>
<text text-anchor="start" x="2444.6" y="-1018.4" font-family="Times Roman,serif" font-size="14.00">email :character varying</text>
<text text-anchor="start" x="2444.6" y="-1000.4" font-family="Times Roman,serif" font-size="14.00">encrypted_password :character varying</text>
<text text-anchor="start" x="2444.6" y="-982.4" font-family="Times Roman,serif" font-size="14.00">reset_password_token :character varying</text>
<text text-anchor="start" x="2444.6" y="-964.4" font-family="Times Roman,serif" font-size="14.00">reset_password_sent_at :timestamp without time zone</text>
<text text-anchor="start" x="2444.6" y="-946.4" font-family="Times Roman,serif" font-size="14.00">remember_created_at :timestamp without time zone</text>
<text text-anchor="start" x="2444.6" y="-928.4" font-family="Times Roman,serif" font-size="14.00">sign_in_count :integer</text>
<text text-anchor="start" x="2444.6" y="-910.4" font-family="Times Roman,serif" font-size="14.00">current_sign_in_at :timestamp without time zone</text>
<text text-anchor="start" x="2444.6" y="-892.4" font-family="Times Roman,serif" font-size="14.00">last_sign_in_at :timestamp without time zone</text>
<text text-anchor="start" x="2444.6" y="-874.4" font-family="Times Roman,serif" font-size="14.00">current_sign_in_ip :inet</text>
<text text-anchor="start" x="2444.6" y="-856.4" font-family="Times Roman,serif" font-size="14.00">last_sign_in_ip :inet</text>
<text text-anchor="start" x="2444.6" y="-838.4" font-family="Times Roman,serif" font-size="14.00">created_at :timestamp without time zone</text>
<text text-anchor="start" x="2444.6" y="-820.4" font-family="Times Roman,serif" font-size="14.00">updated_at :timestamp without time zone</text>
<text text-anchor="start" x="2444.6" y="-802.4" font-family="Times Roman,serif" font-size="14.00">role :character varying</text>
</g>
<!-- Location -->
<g id="node12" class="node"><title>Location</title>
<polyline fill="none" stroke="black" points="1390.1,-874 1675.1,-874 "/>
<path fill="none" stroke="black" d="M1675.1,-874C1681.1,-874 1687.1,-880 1687.1,-886"/>
<polyline fill="none" stroke="black" points="1687.1,-886 1687.1,-986 "/>
<path fill="none" stroke="black" d="M1687.1,-986C1687.1,-992 1681.1,-998 1675.1,-998"/>
<polyline fill="none" stroke="black" points="1675.1,-998 1390.1,-998 "/>
<path fill="none" stroke="black" d="M1390.1,-998C1384.1,-998 1378.1,-992 1378.1,-986"/>
<polyline fill="none" stroke="black" points="1378.1,-986 1378.1,-886 "/>
<path fill="none" stroke="black" d="M1378.1,-886C1378.1,-880 1384.1,-874 1390.1,-874"/>
<text text-anchor="middle" x="1532.6" y="-981.4" font-family="Times Roman,serif" font-size="14.00">Location</text>
<polyline fill="none" stroke="black" points="1378.1,-972 1687.1,-972 "/>
<text text-anchor="start" x="1386.1" y="-955.4" font-family="Times Roman,serif" font-size="14.00">id :integer</text>
<text text-anchor="start" x="1386.1" y="-937.4" font-family="Times Roman,serif" font-size="14.00">name :character varying</text>
<text text-anchor="start" x="1386.1" y="-919.4" font-family="Times Roman,serif" font-size="14.00">flag_image :character varying</text>
<text text-anchor="start" x="1386.1" y="-901.4" font-family="Times Roman,serif" font-size="14.00">created_at :timestamp without time zone</text>
<text text-anchor="start" x="1386.1" y="-883.4" font-family="Times Roman,serif" font-size="14.00">updated_at :timestamp without time zone</text>
</g>
<!-- User -->
<g id="node14" class="node"><title>User</title>
<polyline fill="none" stroke="black" points="1045.1,-487 1330.1,-487 "/>
<path fill="none" stroke="black" d="M1330.1,-487C1336.1,-487 1342.1,-493 1342.1,-499"/>
<polyline fill="none" stroke="black" points="1342.1,-499 1342.1,-743 "/>
<path fill="none" stroke="black" d="M1342.1,-743C1342.1,-749 1336.1,-755 1330.1,-755"/>
<polyline fill="none" stroke="black" points="1330.1,-755 1045.1,-755 "/>
<path fill="none" stroke="black" d="M1045.1,-755C1039.1,-755 1033.1,-749 1033.1,-743"/>
<polyline fill="none" stroke="black" points="1033.1,-743 1033.1,-499 "/>
<path fill="none" stroke="black" d="M1033.1,-499C1033.1,-493 1039.1,-487 1045.1,-487"/>
<text text-anchor="middle" x="1187.6" y="-738.4" font-family="Times Roman,serif" font-size="14.00">User</text>
<polyline fill="none" stroke="black" points="1033.1,-729 1342.1,-729 "/>
<text text-anchor="start" x="1041.1" y="-712.4" font-family="Times Roman,serif" font-size="14.00">id :integer</text>
<text text-anchor="start" x="1041.1" y="-694.4" font-family="Times Roman,serif" font-size="14.00">email :character varying</text>
<text text-anchor="start" x="1041.1" y="-676.4" font-family="Times Roman,serif" font-size="14.00">username :character varying</text>
<text text-anchor="start" x="1041.1" y="-658.4" font-family="Times Roman,serif" font-size="14.00">full_name :character varying</text>
<text text-anchor="start" x="1041.1" y="-640.4" font-family="Times Roman,serif" font-size="14.00">fb_location :character varying</text>
<text text-anchor="start" x="1041.1" y="-622.4" font-family="Times Roman,serif" font-size="14.00">image :character varying</text>
<text text-anchor="start" x="1041.1" y="-604.4" font-family="Times Roman,serif" font-size="14.00">profile_status :character varying</text>
<text text-anchor="start" x="1041.1" y="-586.4" font-family="Times Roman,serif" font-size="14.00">is_active :boolean</text>
<text text-anchor="start" x="1041.1" y="-568.4" font-family="Times Roman,serif" font-size="14.00">fb_id :character varying</text>
<text text-anchor="start" x="1041.1" y="-550.4" font-family="Times Roman,serif" font-size="14.00">authentication_token :character varying</text>
<text text-anchor="start" x="1041.1" y="-532.4" font-family="Times Roman,serif" font-size="14.00">is_subscribed :boolean</text>
<text text-anchor="start" x="1041.1" y="-514.4" font-family="Times Roman,serif" font-size="14.00">created_at :timestamp without time zone</text>
<text text-anchor="start" x="1041.1" y="-496.4" font-family="Times Roman,serif" font-size="14.00">updated_at :timestamp without time zone</text>
</g>
<!-- Location&#45;&gt;User -->
<g id="edge2" class="edge"><title>Location&#45;&gt;User</title>
<path fill="none" stroke="#220b49" d="M1456.89,-866.875C1423.02,-835.953 1381.79,-798.31 1341.88,-761.868"/>
<polygon fill="#220b49" stroke="#220b49" points="1457.05,-867.023 1461.4,-877.089 1460.74,-870.395 1464.44,-873.766 1464.44,-873.766 1464.44,-873.766 1460.74,-870.395 1467.47,-870.443 1457.05,-867.023 1457.05,-867.023"/>
<polygon fill="#220b49" stroke="#220b49" points="1341.83,-761.822 1337.48,-751.756 1338.14,-758.45 1334.45,-755.079 1334.45,-755.079 1334.45,-755.079 1338.14,-758.45 1331.41,-758.402 1341.83,-761.822 1341.83,-761.822"/>
</g>
<!-- Chatroom -->
<g id="node15" class="node"><title>Chatroom</title>
<polyline fill="none" stroke="black" points="1735.1,-253 2020.1,-253 "/>
<path fill="none" stroke="black" d="M2020.1,-253C2026.1,-253 2032.1,-259 2032.1,-265"/>
<polyline fill="none" stroke="black" points="2032.1,-265 2032.1,-419 "/>
<path fill="none" stroke="black" d="M2032.1,-419C2032.1,-425 2026.1,-431 2020.1,-431"/>
<polyline fill="none" stroke="black" points="2020.1,-431 1735.1,-431 "/>
<path fill="none" stroke="black" d="M1735.1,-431C1729.1,-431 1723.1,-425 1723.1,-419"/>
<polyline fill="none" stroke="black" points="1723.1,-419 1723.1,-265 "/>
<path fill="none" stroke="black" d="M1723.1,-265C1723.1,-259 1729.1,-253 1735.1,-253"/>
<text text-anchor="middle" x="1877.6" y="-414.4" font-family="Times Roman,serif" font-size="14.00">Chatroom</text>
<polyline fill="none" stroke="black" points="1723.1,-405 2032.1,-405 "/>
<text text-anchor="start" x="1731.1" y="-388.4" font-family="Times Roman,serif" font-size="14.00">id :integer</text>
<text text-anchor="start" x="1731.1" y="-370.4" font-family="Times Roman,serif" font-size="14.00">name :character varying</text>
<text text-anchor="start" x="1731.1" y="-352.4" font-family="Times Roman,serif" font-size="14.00">image :character varying</text>
<text text-anchor="start" x="1731.1" y="-334.4" font-family="Times Roman,serif" font-size="14.00">status :boolean</text>
<text text-anchor="start" x="1731.1" y="-316.4" font-family="Times Roman,serif" font-size="14.00">is_multiple :boolean</text>
<text text-anchor="start" x="1731.1" y="-298.4" font-family="Times Roman,serif" font-size="14.00">location_id :integer</text>
<text text-anchor="start" x="1731.1" y="-280.4" font-family="Times Roman,serif" font-size="14.00">created_at :timestamp without time zone</text>
<text text-anchor="start" x="1731.1" y="-262.4" font-family="Times Roman,serif" font-size="14.00">updated_at :timestamp without time zone</text>
</g>
<!-- Location&#45;&gt;Chatroom -->
<g id="edge4" class="edge"><title>Location&#45;&gt;Chatroom</title>
<path fill="none" stroke="#5de087" d="M1572.75,-866.867C1633.95,-761.5 1750.81,-560.294 1820.72,-439.929"/>
<ellipse fill="none" stroke="#5de087" cx="1570.71" cy="-870.375" rx="4.00002" ry="4.00002"/>
<polygon fill="#5de087" stroke="#5de087" points="1820.86,-439.695 1829.77,-433.307 1823.37,-435.371 1825.88,-431.047 1825.88,-431.047 1825.88,-431.047 1823.37,-435.371 1821.99,-428.787 1820.86,-439.695 1820.86,-439.695"/>
</g>
<!-- SingleChatMessage -->
<g id="node13" class="node"><title>SingleChatMessage</title>
<polyline fill="none" stroke="black" points="1045.1,-244 1330.1,-244 "/>
<path fill="none" stroke="black" d="M1330.1,-244C1336.1,-244 1342.1,-250 1342.1,-256"/>
<polyline fill="none" stroke="black" points="1342.1,-256 1342.1,-428 "/>
<path fill="none" stroke="black" d="M1342.1,-428C1342.1,-434 1336.1,-440 1330.1,-440"/>
<polyline fill="none" stroke="black" points="1330.1,-440 1045.1,-440 "/>
<path fill="none" stroke="black" d="M1045.1,-440C1039.1,-440 1033.1,-434 1033.1,-428"/>
<polyline fill="none" stroke="black" points="1033.1,-428 1033.1,-256 "/>
<path fill="none" stroke="black" d="M1033.1,-256C1033.1,-250 1039.1,-244 1045.1,-244"/>
<text text-anchor="middle" x="1187.6" y="-423.4" font-family="Times Roman,serif" font-size="14.00">SingleChatMessage</text>
<polyline fill="none" stroke="black" points="1033.1,-414 1342.1,-414 "/>
<text text-anchor="start" x="1041.1" y="-397.4" font-family="Times Roman,serif" font-size="14.00">id :integer</text>
<text text-anchor="start" x="1041.1" y="-379.4" font-family="Times Roman,serif" font-size="14.00">user_id :integer</text>
<text text-anchor="start" x="1041.1" y="-361.4" font-family="Times Roman,serif" font-size="14.00">member_id :integer</text>
<text text-anchor="start" x="1041.1" y="-343.4" font-family="Times Roman,serif" font-size="14.00">message :text</text>
<text text-anchor="start" x="1041.1" y="-325.4" font-family="Times Roman,serif" font-size="14.00">media :character varying</text>
<text text-anchor="start" x="1041.1" y="-307.4" font-family="Times Roman,serif" font-size="14.00">is_read :boolean</text>
<text text-anchor="start" x="1041.1" y="-289.4" font-family="Times Roman,serif" font-size="14.00">is_delete :boolean</text>
<text text-anchor="start" x="1041.1" y="-271.4" font-family="Times Roman,serif" font-size="14.00">created_at :timestamp without time zone</text>
<text text-anchor="start" x="1041.1" y="-253.4" font-family="Times Roman,serif" font-size="14.00">updated_at :timestamp without time zone</text>
</g>
<!-- User&#45;&gt;Gadget -->
<g id="edge10" class="edge"><title>User&#45;&gt;Gadget</title>
<path fill="none" stroke="#400fd9" d="M1348.92,-482.932C1378.13,-457.94 1407.4,-432.886 1433,-410.98"/>
<ellipse fill="none" stroke="#400fd9" cx="1345.52" cy="-485.844" rx="4.00002" ry="4.00002"/>
<polygon fill="#400fd9" stroke="#400fd9" points="1433.22,-410.789 1443.74,-407.706 1437.02,-407.538 1440.82,-404.287 1440.82,-404.287 1440.82,-404.287 1437.02,-407.538 1437.89,-400.868 1433.22,-410.789 1433.22,-410.789"/>
</g>
<!-- User&#45;&gt;Message -->
<g id="edge18" class="edge"><title>User&#45;&gt;Message</title>
<path fill="none" stroke="#617846" d="M1024.63,-608.239C724.608,-583.083 109.59,-523.136 46.5978,-450 -16.0523,-377.261 -14.9184,-307.701 46.5978,-234 118.748,-147.559 428.56,-116.34 624.635,-105.154"/>
<ellipse fill="none" stroke="#617846" cx="1028.99" cy="-608.603" rx="4" ry="4"/>
<polygon fill="#617846" stroke="#617846" points="624.773,-105.146 635.008,-109.081 629.765,-104.867 634.757,-104.588 634.757,-104.588 634.757,-104.588 629.765,-104.867 634.506,-100.095 624.773,-105.146 624.773,-105.146"/>
</g>
<!-- User&#45;&gt;UsersChatroom -->
<g id="edge14" class="edge"><title>User&#45;&gt;UsersChatroom</title>
<path fill="none" stroke="#73b1d2" d="M1350.03,-583.037C1474.93,-550.535 1633.25,-501.022 1676.6,-450 1739.71,-375.716 1682.82,-326.15 1714.6,-234 1719.83,-218.819 1726.61,-203.28 1733.91,-188.398"/>
<ellipse fill="none" stroke="#73b1d2" cx="1346.1" cy="-584.053" rx="4.00001" ry="4.00001"/>
<polygon fill="#73b1d2" stroke="#73b1d2" points="1734.03,-188.164 1742.53,-181.245 1736.27,-183.695 1738.51,-179.226 1738.51,-179.226 1738.51,-179.226 1736.27,-183.695 1734.49,-177.208 1734.03,-188.164 1734.03,-188.164"/>
</g>
<!-- User&#45;&gt;Subscription -->
<g id="edge6" class="edge"><title>User&#45;&gt;Subscription</title>
<path fill="none" stroke="#62f58e" d="M1025.06,-605.186C856.603,-584.647 588.261,-540.164 372.598,-450 351.726,-441.274 330.674,-429.772 310.951,-417.531"/>
<ellipse fill="none" stroke="#62f58e" cx="1029.03" cy="-605.666" rx="4.00001" ry="4.00001"/>
<ellipse fill="#62f58e" stroke="#62f58e" cx="307.418" cy="-415.305" rx="4.00002" ry="4.00002"/>
</g>
<!-- User&#45;&gt;ContactU -->
<g id="edge8" class="edge"><title>User&#45;&gt;ContactU</title>
<path fill="none" stroke="#546f7c" d="M1025.16,-575.356C927.98,-545.339 803.404,-502.028 698.598,-450 680.176,-440.855 661.344,-429.989 643.328,-418.73"/>
<ellipse fill="none" stroke="#546f7c" cx="1029.17" cy="-576.589" rx="4.00001" ry="4.00001"/>
<polygon fill="#546f7c" stroke="#546f7c" points="643.004,-418.525 636.961,-409.375 638.78,-415.851 634.555,-413.177 634.555,-413.177 634.555,-413.177 638.78,-415.851 632.148,-416.979 643.004,-418.525 643.004,-418.525"/>
</g>
<!-- User&#45;&gt;Friend -->
<g id="edge12" class="edge"><title>User&#45;&gt;Friend</title>
<path fill="none" stroke="#c7fcb8" d="M1026.56,-483.176C1015.77,-473.944 1004.97,-464.702 994.349,-455.612"/>
<ellipse fill="none" stroke="#c7fcb8" cx="1029.67" cy="-485.844" rx="4.00002" ry="4.00002"/>
<polygon fill="#c7fcb8" stroke="#c7fcb8" points="994.247,-455.525 989.575,-445.604 990.448,-452.274 986.649,-449.022 986.649,-449.022 986.649,-449.022 990.448,-452.274 983.723,-452.441 994.247,-455.525 994.247,-455.525"/>
</g>
<!-- User&#45;&gt;SingleChatMessage -->
<g id="edge20" class="edge"><title>User&#45;&gt;SingleChatMessage</title>
<path fill="none" stroke="#2dab77" d="M1187.6,-478.674C1187.6,-469.076 1187.6,-459.496 1187.6,-450.116"/>
<ellipse fill="none" stroke="#2dab77" cx="1187.6" cy="-482.812" rx="4" ry="4"/>
<polygon fill="#2dab77" stroke="#2dab77" points="1187.6,-450.024 1192.1,-440.024 1187.6,-445.024 1187.6,-440.024 1187.6,-440.024 1187.6,-440.024 1187.6,-445.024 1183.1,-440.024 1187.6,-450.024 1187.6,-450.024"/>
</g>
<!-- User&#45;&gt;Chatroom -->
<g id="edge16" class="edge"><title>User&#45;&gt;Chatroom</title>
<path fill="none" stroke="#16acdd" d="M1351.98,-568.263C1498.56,-521.062 1692.63,-458.072 1709.6,-450 1718.52,-445.756 1727.54,-441.118 1736.52,-436.226"/>
<polygon fill="#16acdd" stroke="#16acdd" points="1351.92,-568.283 1341.02,-567.064 1347.16,-569.816 1342.4,-571.348 1342.4,-571.348 1342.4,-571.348 1347.16,-569.816 1343.78,-575.631 1351.92,-568.283 1351.92,-568.283"/>
<polygon fill="#16acdd" stroke="#16acdd" points="1736.74,-436.105 1747.67,-435.192 1741.12,-433.68 1745.49,-431.256 1745.49,-431.256 1745.49,-431.256 1741.12,-433.68 1743.31,-427.32 1736.74,-436.105 1736.74,-436.105"/>
</g>
<!-- Chatroom&#45;&gt;Message -->
<g id="edge22" class="edge"><title>Chatroom&#45;&gt;Message</title>
<path fill="none" stroke="#b69588" d="M1716.98,-249.634C1703.56,-243.789 1689.99,-238.47 1676.6,-234 1433.15,-152.771 1135.66,-120.18 954.526,-107.267"/>
<ellipse fill="none" stroke="#b69588" cx="1720.76" cy="-251.312" rx="4.00002" ry="4.00002"/>
<polygon fill="#b69588" stroke="#b69588" points="954.355,-107.255 944.694,-102.067 949.367,-106.906 944.379,-106.556 944.379,-106.556 944.379,-106.556 949.367,-106.906 944.064,-111.045 954.355,-107.255 954.355,-107.255"/>
</g>
<!-- Chatroom&#45;&gt;UsersChatroom -->
<g id="edge24" class="edge"><title>Chatroom&#45;&gt;UsersChatroom</title>
<path fill="none" stroke="#c4e2d0" d="M1841.35,-245.21C1834.38,-226.585 1827.1,-207.15 1820.21,-188.759"/>
<ellipse fill="none" stroke="#c4e2d0" cx="1842.83" cy="-249.15" rx="4.00001" ry="4.00001"/>
<polygon fill="#c4e2d0" stroke="#c4e2d0" points="1820.16,-188.611 1820.86,-177.668 1818.4,-183.928 1816.65,-179.246 1816.65,-179.246 1816.65,-179.246 1818.4,-183.928 1812.43,-180.824 1820.16,-188.611 1820.16,-188.611"/>
</g>
</g>
</svg>
